# xmcd CD database file
#
# Track frame offsets:
#	150
#	16467
#	34292
#	56165
#	73832
#	87272
#	107283
#	122893
#	144465
#	165048
#	190440
#	205152
#	220903
#	238102
#	254762
#	276837
#	293780
#	309458
#	331288
#
# Disc length: 4667 seconds
#
# Revision: 1
# Processed by: cddbd v1.5.2PL0 Copyright (c) Steve Scherf et al.
# Submitted via: CDex 1.51
#
DISCID=22123913
DTITLE=Cheap Trick - The Essential Cheap Trick (Disc.2)
DYEAR=2004
DGENRE=Rock
TTITLE0=Way Of The World
TTITLE1=Stop This Game
TTITLE2=World's Greatest Lover
TTITLE3=Everything Works If You Let It (Full Version)
TTITLE4=She's Tight
TTITLE5=If You Want My Love (Alternate, Extra Bridge Version)
TTITLE6=I Can't Take It
TTITLE7=Tonight It's You
TTITLE8=This Time Around
TTITLE9=The Flame
TTITLE10=Had To Make You Mine
TTITLE11=I Can't Understand It
TTITLE12=Can't Stop Falling Into Love
TTITLE13=Walk Away (featuring Chrissie Hynde)
TTITLE14=Woke Up With A Monster
TTITLE15=Hard To Tell (Live)
TTITLE16=Say Goodbye
TTITLE17=Scent Of A Woman
TTITLE18=Magical Mystery Tour
EXTD=YEAR: 2004
EXTT0=
EXTT1=
EXTT2=
EXTT3=
EXTT4=
EXTT5=
EXTT6=
EXTT7=
EXTT8=
EXTT9=
EXTT10=
EXTT11=
EXTT12=
EXTT13=
EXTT14=
EXTT15=
EXTT16=
EXTT17=
EXTT18=
PLAYORDER=
